<svg width="26" height="24" xmlns="http://www.w3.org/2000/svg"><g fill="#3C3C3C" fill-rule="evenodd"><path d="M12.766 21.249c-1.687 0-3.296-.338-4.775-1.012l-.363-.156L3.45 22l.545-4.827-.208-.26c-1.09-1.504-1.66-3.217-1.66-5.007 0-5.138 4.774-9.342 10.613-9.342 5.838 0 10.613 4.178 10.613 9.342.026 5.138-4.723 9.342-10.587 9.342m0-20.37C5.966.878.44 5.833.44 11.906c0 2.024.622 3.996 1.79 5.735l-.57 4.904a1.33 1.33 0 0 0 .518 1.194c.234.155.493.233.753.233.181 0 .363-.026.545-.13l4.152-1.894c1.609.649 3.321.986 5.112.986 6.799 0 12.326-4.956 12.326-11.028.026-6.073-5.501-11.029-12.3-11.029"/><path d="M7.264 10.272a1.635 1.635 0 1 1 0 3.27 1.635 1.635 0 0 1 0-3.27m5.502 0a1.635 1.635 0 1 1 0 3.27 1.635 1.635 0 0 1 0-3.27m5.501 0a1.635 1.635 0 1 1 0 3.27 1.635 1.635 0 0 1 0-3.27"/></g></svg>