<svg width="64" height="29" xmlns="http://www.w3.org/2000/svg" xmlns:xlink="http://www.w3.org/1999/xlink"><defs><path id="a" d="M19.686 28.413H0V9.343h19.686v19.07z"/></defs><g fill="none" fill-rule="evenodd"><path fill="#000" d="M58.23.386l-7.39 11.297h-1.037V.388H45.33v27.664h4.473V15.815h3.659L63.518.44zm4.757 16.807c-1.018-2.266-2.704-3.85-4.683-4.804l-2.265 3.464c-.104.158-.034.36.14.435a5.292 5.292 0 0 1 1.614 1.084 5.242 5.242 0 0 1 1.577 3.756v6.924h4.473v-6.558c0-1.475-.251-2.952-.856-4.3m-30.215-3.779c2.734.245 4.876 2.515 4.876 5.279.001 2.867-2.467 5.304-5.371 5.303-2.966 0-5.37-2.374-5.37-5.302a5.22 5.22 0 0 1 .861-2.864l-.02-.015 4.473-6.837h-.002L37.805.441 32.516.387l-8.53 13.04-.005.007.023.015a9.583 9.583 0 0 0-1.37 7.215c.776 3.832 3.924 6.89 7.818 7.585 6.227 1.113 11.669-3.606 11.669-9.554 0-4.453-3.053-8.207-7.198-9.352l-2.377 3.64c-.12.184.006.411.226.432M10.088.387h-.007L1.84 12.98a.289.289 0 0 0 .246.446h4.79l2.91-4.447h-.003l2.952-4.515H19.7V.387h-9.612z"/><mask id="b" fill="#fff"><use xlink:href="#a"/></mask><path d="M12.488 9.343l-2.384 3.65c-.116.179.008.402.222.42 2.74.242 4.887 2.513 4.889 5.281 0 2.869-2.471 5.305-5.376 5.303-2.964-.002-5.367-2.375-5.367-5.302v-.01H0c0 .686.07 1.39.225 2.104.817 3.789 3.959 6.787 7.82 7.467 6.216 1.09 11.641-3.621 11.641-9.56 0-4.454-3.053-8.208-7.198-9.353" fill="#000" mask="url(#b)"/></g></svg>