<svg viewBox="0 0 217.8 36.7" width="217" height="36"><path d="M0 .6h9.8c2.6 0 4.6.7 6.1 2.1 1.5 1.4 2.2 3.2 2.2 5.4 0 1.4-.4 2.7-1.1 3.8-.7 1.1-1.7 1.8-2.8 2.2 1.4.3 2.5 1.1 3.4 2.3.9 1.2 1.4 2.6 1.4 4.3 0 2.3-.8 4.1-2.3 5.6-1.5 1.5-3.6 2.2-6.1 2.2H0V.6zm5.2 11.5H9c1.2 0 2.2-.3 2.8-.9.7-.6 1-1.5 1-2.6s-.3-1.9-1-2.5c-.6-.6-1.6-1-2.8-1H5.2v7zm0 11.8h4.3c1.3 0 2.3-.3 3-1 .7-.6 1.1-1.5 1.1-2.7 0-1.1-.4-2-1.1-2.7-.7-.7-1.7-1-3-1H5.2v7.4zm16.4-.7c0-1.7.5-3 1.6-4 1-1 2.4-1.6 4.1-1.9l4.6-.7c.9-.1 1.4-.6 1.4-1.4 0-.7-.3-1.3-.8-1.8-.6-.5-1.3-.7-2.4-.7-1.1 0-1.8.4-2.5 1-.6.6-1.2 1.3-1.5 2.1l-3.8-2v-.1c.4-1.2.9-2.1 2-3.1 1.6-1.4 3.3-2.1 5.7-2.1 2.8 0 4.9.7 6.2 2.1 1.3 1.4 2 3.1 2 5.3v12.6h-4.6v-2.3c-1.2 1.9-3.1 2.9-5.6 2.9-1.9 0-3.5-.6-4.7-1.7-1.1-1.3-1.7-2.6-1.7-4.2m7.5 1.9c1.2 0 2.2-.3 3-1 .8-.7 1.2-1.8 1.2-3.4v-.9l-4.3.6c-1.6.2-2.3 1-2.3 2.4 0 .6.2 1.2.7 1.6.4.5 1 .7 1.7.7m138.3-1.9c0-1.7.5-3 1.6-4 1-1 2.4-1.6 4.1-1.9l4.6-.7c.9-.1 1.4-.6 1.4-1.4 0-.7-.3-1.3-.8-1.8-.6-.5-1.3-.7-2.4-.7-1.1 0-1.8.4-2.5 1-.6.6-1.2 1.3-1.5 2.1l-3.8-2v-.1c.4-1.2.9-2.1 2-3.1 1.6-1.4 3.3-2.1 5.7-2.1 2.8 0 4.9.7 6.2 2.1 1.3 1.4 2 3.1 2 5.3v12.6h-4.6v-2.3c-1.2 1.9-3.1 2.9-5.6 2.9-1.9 0-3.5-.6-4.7-1.7-1.1-1.3-1.7-2.6-1.7-4.2m7.5 1.9c1.2 0 2.2-.3 3-1 .8-.7 1.2-1.8 1.2-3.4v-.9l-4.3.7c-1.6.2-2.3 1-2.3 2.4 0 .6.2 1.2.7 1.6.4.4 1 .6 1.7.6M47.5 17.3v11.1h-5.1V9.1h4.9v2.4c.5-.9 1.3-1.7 2.3-2.2 1-.5 2-.7 3.1-.7 2.2 0 3.9.7 5 2.1 1.2 1.4 1.7 3.3 1.7 5.5v12.2h-5.1V17.2c0-1.2-.3-2.1-.9-2.8-.6-.7-1.4-1.1-2.6-1.1-1.1 0-1.9.4-2.5 1.1-.5.8-.8 1.8-.8 2.9M68 29.1c.5.9.8 1.3 1.5 1.9.8.7 1.9 1.2 3.1 1.2 3.4 0 5-2 5-5.6v-1.4c-.4.7-1.1 1.3-2 1.8-.9.5-2 .7-3.3.7-2.5 0-4.6-.9-6.3-2.7-1.7-1.8-2.5-4-2.5-6.7 0-2.6.8-4.8 2.5-6.7 1.7-1.8 3.8-2.8 6.3-2.8 1.4 0 2.5.3 3.5.8.9.5 1.6 1.1 1.9 1.9V9.1h4.9v17.3c0 2.9-.8 5.3-2.5 7.3-1.6 1.9-4.1 3.1-7.5 3.1-2.5 0-4.6-.9-6.3-2.3-1.2-1-2-2.1-2.5-3.4l4.2-2zm5.2-6c1.3 0 2.4-.4 3.2-1.3.8-.9 1.3-2.1 1.3-3.6s-.4-2.6-1.3-3.5c-.9-.9-1.9-1.3-3.2-1.3-1.3 0-2.4.4-3.3 1.3-.9.9-1.3 2.1-1.3 3.5 0 1.5.4 2.7 1.3 3.6.9.9 2 1.3 3.3 1.3zm27.4-1.1l3.8 2.1v.1c-.6 1.3-1.4 2.2-2.6 3.2-1.5 1.2-3.4 1.7-5.6 1.7-2.7 0-5-.9-6.9-2.8-1.9-1.9-2.9-4.4-2.9-7.5 0-3 .9-5.4 2.8-7.3 1.9-1.9 4-2.9 6.6-2.9 2.9 0 5.2.9 6.9 2.7 1.7 1.8 2.5 4.2 2.5 7.4v1.6H91.5c0 1.3.5 2.3 1.5 3.1.9.8 2 1.3 3.3 1.3 2.2-.1 3.3-.8 4.3-2.7m-9-5.4h8.5c-.1-1.1-.4-2-1.1-2.7-.7-.7-1.7-1.1-3.1-1.1-1.2 0-2.2.4-3 1.2-.8.7-1.2 1.6-1.3 2.6m67.7 5.4l3.8 2.1v.1c-.6 1.3-1.4 2.2-2.6 3.2-1.5 1.2-3.4 1.7-5.6 1.7-2.7 0-5-.9-6.9-2.8-1.9-1.9-2.8-4.4-2.8-7.5 0-3 .9-5.4 2.8-7.3 1.8-1.9 4-2.9 6.5-2.9 2.9 0 5.2.9 6.9 2.7 1.7 1.8 2.5 4.2 2.5 7.4v1.6h-13.5c0 1.3.5 2.3 1.5 3.1.9.8 2 1.3 3.3 1.3 1.9-.1 3-.8 4.1-2.7m-9-5.4h8.5c-.1-1.1-.4-2-1.1-2.7-.7-.7-1.7-1.1-3.1-1.1-1.2 0-2.2.4-3 1.2-.9.7-1.3 1.6-1.3 2.6M120.6 9v5.1h-1.5c-1.4 0-2.6.4-3.5 1.3-.9.9-1.3 2.2-1.3 4.2v8.8h-5.1V9.1h4.9V12c.9-2 2.7-3 5.3-3h1.2m8.7 8.1v11.4h-5.1V0h5.1v10.7c1.2-1.4 2.9-2.1 5.1-2.1 2.3 0 4.1.7 5.2 2.1 1.2 1.4 1.8 3.3 1.8 5.5v12.2h-5.1V17.2c0-1.2-.3-2.1-.9-2.8s-1.5-1.1-2.6-1.1-1.9.4-2.5 1.1c-.6.7-.9 1.6-1 2.7M207.1 0v28.5h-4.9v-2.2c-.4.8-1.1 1.5-2 2-.9.5-2 .7-3.2.7-2.7 0-4.9-1-6.6-2.9-1.7-1.9-2.6-4.4-2.6-7.3 0-2.9.8-5.3 2.5-7.2 1.7-1.9 3.8-2.9 6.5-2.9s4.5.8 5.3 2.4V0h5zm-14.2 18.8c0 1.7.4 3 1.3 4s2 1.5 3.4 1.5c1.3 0 2.5-.5 3.3-1.5.9-1 1.3-2.3 1.3-4 0-1.7-.4-3-1.3-4s-2-1.4-3.3-1.4c-1.3 0-2.5.5-3.3 1.5-1 .9-1.4 2.2-1.4 3.9zm18.8 8.9c-.7-.7-1.1-1.5-1.1-2.5s.4-1.8 1.1-2.5c.7-.7 1.5-1 2.5-1s1.8.3 2.6 1c.7.7 1.1 1.5 1.1 2.5s-.4 1.8-1.1 2.5c-.7.7-1.6 1-2.6 1s-1.8-.3-2.5-1"/></svg>