<?xml version="1.0" encoding="UTF-8"?>
<svg width="18px" height="16px" viewBox="0 0 18 16" version="1.1" xmlns="http://www.w3.org/2000/svg" xmlns:xlink="http://www.w3.org/1999/xlink">
    <!-- Generator: Sketch 47.1 (45422) - http://www.bohemiancoding.com/sketch -->
    <title>Group 3</title>
    <desc>Created with Sketch.</desc>
    <defs></defs>
    <g id="Page-1" stroke="none" stroke-width="1" fill="none" fill-rule="evenodd">
        <g id="Desktop-HD-Copy-2" transform="translate(-186.000000, -1960.000000)" stroke="#FFB500">
            <g id="Group-6" transform="translate(100.000000, 1959.000000)">
                <g id="Group-3" transform="translate(86.000000, 1.000000)">
                    <path d="M16.9922347,13.6531546 L16.9922347,4.13735658 C16.9922347,3.46062333 16.3374891,2.91215179 15.5312726,2.91215179 L2.07112137,2.91215179 C1.26490485,2.91215179 0.611380859,3.46062333 0.611380859,4.13735658 L0.611380859,13.6531546 C0.611380859,14.3298878 1.26490485,14.8783594 2.07112137,14.8783594 L15.5312726,14.8783594 C16.3374891,14.8783594 16.9922347,14.3298878 16.9922347,13.6531546 Z" id="Stroke-1"></path>
                    <path d="M14.4560729,0.610525781 L14.4560729,5.21328917" id="Stroke-3" stroke-linecap="round"></path>
                    <path d="M11.6288182,0.610525781 L11.6288182,5.21328917" id="Stroke-5" stroke-linecap="round"></path>
                    <path d="M5.97687394,0.610525781 L5.97687394,5.21328917" id="Stroke-7" stroke-linecap="round"></path>
                    <path d="M8.8016856,0.610525781 L8.8016856,5.21328917" id="Stroke-9" stroke-linecap="round"></path>
                    <path d="M3.15206228,0.610525781 L3.15206228,5.21328917" id="Stroke-11" stroke-linecap="round"></path>
                </g>
            </g>
        </g>
    </g>
</svg>