<?xml version="1.0" encoding="UTF-8"?>
<svg width="26px" height="24px" viewBox="0 0 26 24" version="1.1" xmlns="http://www.w3.org/2000/svg" xmlns:xlink="http://www.w3.org/1999/xlink">
    <!-- Generator: Sketch 47.1 (45422) - http://www.bohemiancoding.com/sketch -->
    <title>Group 5</title>
    <desc>Created with Sketch.</desc>
    <defs></defs>
    <g id="Page-1" stroke="none" stroke-width="1" fill="none" fill-rule="evenodd">
        <g id="Desktop-HD-Copy-2" transform="translate(-1297.000000, -3127.000000)" fill="#3C3C3C">
            <g id="Group-5" transform="translate(1297.000000, 3127.000000)">
                <path d="M12.7657462,21.2485009 C11.0790216,21.2485009 9.47014583,20.911156 7.99101811,20.2367256 L7.62772358,20.0807685 L3.44983651,22.0010395 L3.9947783,17.1744122 L3.78718143,16.9149161 C2.69729784,15.4098388 2.12640644,13.6971646 2.12640644,11.9066416 C2.12640644,6.76861896 6.90113453,2.56478228 12.7397966,2.56478228 C18.5784586,2.56478228 23.3531867,6.74266935 23.3531867,11.9066416 C23.3791363,17.0446642 18.6303579,21.2485009 12.7657462,21.2485009 M12.7657462,0.878057681 C5.9669486,0.878057681 0.439681846,5.83443303 0.439681846,11.9066416 C0.439681846,13.9307111 1.06247247,15.9028814 2.23020488,17.6417647 L1.65931348,22.5459813 C1.60741426,23.0130743 1.81501113,23.4542176 2.17830566,23.7399228 C2.41185214,23.895361 2.67134823,23.9732098 2.93084433,23.9732098 C3.11249159,23.9732098 3.29413885,23.9472602 3.47578612,23.8434618 L7.62772358,21.9491403 C9.23659935,22.5978805 10.9492736,22.9352255 12.7397966,22.9352255 C19.5385942,22.9352255 25.0658609,17.9788501 25.0658609,11.9066416 C25.0918105,5.83443303 19.5645438,0.878057681 12.7657462,0.878057681" id="Fill-1"></path>
                <path d="M7.26437716,10.2718681 C8.16716406,10.2718681 8.89920253,11.0039066 8.89920253,11.9066935 C8.89920253,12.8094804 8.16716406,13.5415189 7.26437716,13.5415189 C6.36159025,13.5415189 5.62955178,12.8094804 5.62955178,11.9066935 C5.62955178,11.0039066 6.36159025,10.2718681 7.26437716,10.2718681" id="Fill-4"></path>
                <path d="M12.7657462,10.2718681 C13.6685331,10.2718681 14.4005716,11.0039066 14.4005716,11.9066935 C14.4005716,12.8094804 13.6685331,13.5415189 12.7657462,13.5415189 C11.8629593,13.5415189 11.1309208,12.8094804 11.1309208,11.9066935 C11.1309208,11.0039066 11.8629593,10.2718681 12.7657462,10.2718681" id="Fill-6"></path>
                <path d="M18.2671152,10.2718681 C19.1699021,10.2718681 19.9019406,11.0039066 19.9019406,11.9066935 C19.9019406,12.8094804 19.1699021,13.5415189 18.2671152,13.5415189 C17.3643283,13.5415189 16.6322899,12.8094804 16.6322899,11.9066935 C16.6322899,11.0039066 17.3643283,10.2718681 18.2671152,10.2718681" id="Fill-8"></path>
            </g>
        </g>
    </g>
</svg>