<svg id="logo-bangerhead-big" viewBox="0 0 217.8 36.7" width="217" height="36">
<path id="SVGID_1_" d="M0,0.6h9.8c2.6,0,4.6,0.7,6.1,2.1c1.5,1.4,2.2,3.2,2.2,5.4c0,1.4-0.4,2.7-1.1,3.8       c-0.7,1.1-1.7,1.8-2.8,2.2c1.4,0.3,2.5,1.1,3.4,2.3c0.9,1.2,1.4,2.6,1.4,4.3c0,2.3-0.8,4.1-2.3,5.6c-1.5,1.5-3.6,2.2-6.1,2.2H0       V0.6z M5.2,12.1H9c1.2,0,2.2-0.3,2.8-0.9c0.7-0.6,1-1.5,1-2.6s-0.3-1.9-1-2.5C11.2,5.5,10.2,5.1,9,5.1H5.2V12.1z M5.2,23.9h4.3       c1.3,0,2.3-0.3,3-1c0.7-0.6,1.1-1.5,1.1-2.7c0-1.1-0.4-2-1.1-2.7c-0.7-0.7-1.7-1-3-1H5.2V23.9z"></path>
<path id="SVGID_3_" d="M21.6,23.2c0-1.7,0.5-3,1.6-4c1-1,2.4-1.6,4.1-1.9l4.6-0.7c0.9-0.1,1.4-0.6,1.4-1.4c0-0.7-0.3-1.3-0.8-1.8     c-0.6-0.5-1.3-0.7-2.4-0.7c-1.1,0-1.8,0.4-2.5,1c-0.6,0.6-1.2,1.3-1.5,2.1l-3.8-2c0,0,0,0,0-0.1c0.4-1.2,0.9-2.1,2-3.1     c1.6-1.4,3.3-2.1,5.7-2.1c2.8,0,4.9,0.7,6.2,2.1c1.3,1.4,2,3.1,2,5.3v9.5c0,1.2,0,2,0,3.1h-4.6c0,0,0-1.3,0-2.3     c-1.2,1.9-3.1,2.9-5.6,2.9c-1.9,0-3.5-0.6-4.7-1.7C22.2,26.1,21.6,24.8,21.6,23.2 M29.1,25.1c1.2,0,2.2-0.3,3-1     c0.8-0.7,1.2-1.8,1.2-3.4v-0.9L29,20.4c-1.6,0.2-2.3,1-2.3,2.4c0,0.6,0.2,1.2,0.7,1.6C27.8,24.9,28.4,25.1,29.1,25.1"></path>
<path id="SVGID_5_" d="M167.4,23.2c0-1.7,0.5-3,1.6-4c1-1,2.4-1.6,4.1-1.9l4.6-0.7c0.9-0.1,1.4-0.6,1.4-1.4     c0-0.7-0.3-1.3-0.8-1.8c-0.6-0.5-1.3-0.7-2.4-0.7c-1.1,0-1.8,0.4-2.5,1c-0.6,0.6-1.2,1.3-1.5,2.1l-3.8-2c0,0,0,0,0-0.1     c0.4-1.2,0.9-2.1,2-3.1c1.6-1.4,3.3-2.1,5.7-2.1c2.8,0,4.9,0.7,6.2,2.1c1.3,1.4,2,3.1,2,5.3v9.5c0,1.2,0,2,0,3.1h-4.6     c0,0,0-1.3,0-2.3c-1.2,1.9-3.1,2.9-5.6,2.9c-1.9,0-3.5-0.6-4.7-1.7C168,26.1,167.4,24.8,167.4,23.2 M174.9,25.1     c1.2,0,2.2-0.3,3-1c0.8-0.7,1.2-1.8,1.2-3.4v-0.9l-4.3,0.7c-1.6,0.2-2.3,1-2.3,2.4c0,0.6,0.2,1.2,0.7,1.6     C173.6,24.9,174.2,25.1,174.9,25.1"></path>
<path id="SVGID_7_" d="M47.5,17.3v11.1h-5.1V9.1h4.9v2.4c0.5-0.9,1.3-1.7,2.3-2.2c1-0.5,2-0.7,3.1-0.7c2.2,0,3.9,0.7,5,2.1     c1.2,1.4,1.7,3.3,1.7,5.5v12.2h-5.1V17.2c0-1.2-0.3-2.1-0.9-2.8c-0.6-0.7-1.4-1.1-2.6-1.1c-1.1,0-1.9,0.4-2.5,1.1     C47.8,15.2,47.5,16.2,47.5,17.3"></path>
<path id="SVGID_9_" d="M68,29.1C68,29.1,68,29.1,68,29.1c0.5,0.9,0.8,1.3,1.5,1.9c0.8,0.7,1.9,1.2,3.1,1.2c3.4,0,5-2,5-5.6v-1.4     c-0.4,0.7-1.1,1.3-2,1.8c-0.9,0.5-2,0.7-3.3,0.7c-2.5,0-4.6-0.9-6.3-2.7c-1.7-1.8-2.5-4-2.5-6.7c0-2.6,0.8-4.8,2.5-6.7     c1.7-1.8,3.8-2.8,6.3-2.8c1.4,0,2.5,0.3,3.5,0.8c0.9,0.5,1.6,1.1,1.9,1.9V9.1h4.9v17.3c0,2.9-0.8,5.3-2.5,7.3     c-1.6,1.9-4.1,3.1-7.5,3.1c-2.5,0-4.6-0.9-6.3-2.3c-1.2-1-2-2.1-2.5-3.4l0,0L68,29.1z M73.2,23.1c1.3,0,2.4-0.4,3.2-1.3     c0.8-0.9,1.3-2.1,1.3-3.6c0-1.5-0.4-2.6-1.3-3.5c-0.9-0.9-1.9-1.3-3.2-1.3c-1.3,0-2.4,0.4-3.3,1.3c-0.9,0.9-1.3,2.1-1.3,3.5     c0,1.5,0.4,2.7,1.3,3.6C70.8,22.7,71.9,23.1,73.2,23.1z"></path>
<path id="SVGID_11_" d="M100.6,22l3.8,2.1l0,0.1c-0.6,1.3-1.4,2.2-2.6,3.2c-1.5,1.2-3.4,1.7-5.6,1.7c-2.7,0-5-0.9-6.9-2.8     c-1.9-1.9-2.9-4.4-2.9-7.5c0-3,0.9-5.4,2.8-7.3c1.9-1.9,4-2.9,6.6-2.9c2.9,0,5.2,0.9,6.9,2.7c1.7,1.8,2.5,4.2,2.5,7.4     c0,0.2,0,0.4,0,0.7c0,0.3,0,0.5,0,0.6l0,0.3H91.5c0,1.3,0.5,2.3,1.5,3.1c0.9,0.8,2,1.3,3.3,1.3C98.5,24.6,99.6,23.9,100.6,22      M91.6,16.6h8.5c-0.1-1.1-0.4-2-1.1-2.7c-0.7-0.7-1.7-1.1-3.1-1.1c-1.2,0-2.2,0.4-3,1.2C92.1,14.7,91.7,15.6,91.6,16.6"></path>
<path id="SVGID_13_" d="M159.3,22l3.8,2.1c0,0,0,0,0,0.1c-0.6,1.3-1.4,2.2-2.6,3.2c-1.5,1.2-3.4,1.7-5.6,1.7     c-2.7,0-5-0.9-6.9-2.8c-1.9-1.9-2.8-4.4-2.8-7.5c0-3,0.9-5.4,2.8-7.3c1.8-1.9,4-2.9,6.5-2.9c2.9,0,5.2,0.9,6.9,2.7     c1.7,1.8,2.5,4.2,2.5,7.4c0,0.2,0,0.4,0,0.7c0,0.3,0,0.5,0,0.6l0,0.3h-13.5c0,1.3,0.5,2.3,1.5,3.1c0.9,0.8,2,1.3,3.3,1.3     C157.1,24.6,158.2,23.9,159.3,22 M150.3,16.6h8.5c-0.1-1.1-0.4-2-1.1-2.7c-0.7-0.7-1.7-1.1-3.1-1.1c-1.2,0-2.2,0.4-3,1.2     C150.7,14.7,150.3,15.6,150.3,16.6"></path>
<path id="SVGID_15_" d="M120.6,9v5.1c-0.6,0-1,0-1.5,0c-1.4,0-2.6,0.4-3.5,1.3c-0.9,0.9-1.3,2.2-1.3,4.2v8.8h-5.1V9.1h4.9V12     c0.9-2,2.7-3,5.3-3C119.7,9,120.1,9,120.6,9"></path>
<path id="SVGID_17_" d="M129.3,17.1v11.4h-5.1V0h5.1v10.7c1.2-1.4,2.9-2.1,5.1-2.1c2.3,0,4.1,0.7,5.2,2.1     c1.2,1.4,1.8,3.3,1.8,5.5v12.2h-5.1V17.2c0-1.2-0.3-2.1-0.9-2.8s-1.5-1.1-2.6-1.1c-1.1,0-1.9,0.4-2.5,1.1     C129.7,15.1,129.4,16,129.3,17.1"></path>
<path id="SVGID_19_" d="M207.1,0v25c0,1.3,0,3.5,0,3.5h-4.9c0,0,0-1.4,0-2.2c-0.4,0.8-1.1,1.5-2,2c-0.9,0.5-2,0.7-3.2,0.7     c-2.7,0-4.9-1-6.6-2.9c-1.7-1.9-2.6-4.4-2.6-7.3c0-2.9,0.8-5.3,2.5-7.2c1.7-1.9,3.8-2.9,6.5-2.9c2.7,0,4.5,0.8,5.3,2.4V0H207.1z      M192.9,18.8c0,1.7,0.4,3,1.3,4c0.9,1,2,1.5,3.4,1.5c1.3,0,2.5-0.5,3.3-1.5c0.9-1,1.3-2.3,1.3-4c0-1.7-0.4-3-1.3-4     c-0.9-1-2-1.4-3.3-1.4c-1.3,0-2.5,0.5-3.3,1.5C193.3,15.8,192.9,17.1,192.9,18.8z"></path>
<path id="SVGID_21_" d="M211.7,27.7c-0.7-0.7-1.1-1.5-1.1-2.5c0-1,0.4-1.8,1.1-2.5c0.7-0.7,1.5-1,2.5-1c1,0,1.8,0.3,2.6,1     c0.7,0.7,1.1,1.5,1.1,2.5c0,1-0.4,1.8-1.1,2.5c-0.7,0.7-1.6,1-2.6,1C213.2,28.7,212.4,28.4,211.7,27.7"></path>
</svg>
