<?xml version="1.0" encoding="UTF-8"?>
<svg width="64px" height="29px" viewBox="0 0 64 29" version="1.1" xmlns="http://www.w3.org/2000/svg" xmlns:xlink="http://www.w3.org/1999/xlink">
    <!-- Generator: Sketch 47.1 (45422) - http://www.bohemiancoding.com/sketch -->
    <title>Group</title>
    <desc>Created with Sketch.</desc>
    <defs>
        <polygon id="path-1" points="19.6861585 28.4131882 0 28.4131882 0 9.34347456 19.6861585 9.34347456 19.6861585 28.4131882"></polygon>
    </defs>
    <g id="Page-1" stroke="none" stroke-width="1" fill="none" fill-rule="evenodd">
        <g id="Desktop-HD-Copy-2" transform="translate(-93.000000, -50.000000)">
            <g id="Group" transform="translate(93.000000, 50.000000)">
                <polygon id="Shape" fill="#000000" points="58.2303396 0.386428222 50.8389434 11.6827338 49.8016604 11.6827338 49.8016604 10.8183727 49.8016604 0.388812667 45.3289057 0.388812667 45.3289057 28.0519449 49.8016604 28.0519449 49.8016604 17.0417727 49.8016604 15.814976 53.4605283 15.814976 63.5181887 0.440078222"></polygon>
                <path d="M62.9867472,17.1933041 C61.9687849,14.9268897 60.2830491,13.3436186 58.3038792,12.3886486 L56.0385208,15.8532463 C55.9346717,16.0106197 56.0047094,16.2132974 56.1785962,16.2884074 C56.7727094,16.5471197 57.3209358,16.9059786 57.7930868,17.3721374 C58.8098415,18.3747963 59.3701434,19.7100852 59.3701434,21.1276374 L59.3701434,28.0520641 L63.8428981,28.0520641 L63.8428981,21.4936497 C63.8428981,20.0188708 63.5917283,18.5417074 62.9867472,17.1933041" id="Shape" fill="#000000"></path>
                <path d="M32.7721057,13.4145558 C35.5059925,13.6601536 37.6481811,15.9301447 37.6481811,18.6937158 C37.6493887,21.5610102 35.1811623,23.9979124 32.2770113,23.9967202 C29.3112755,23.9967202 26.9070491,21.6230058 26.9070491,18.694908 C26.9070491,17.6374069 27.2282566,16.6585924 27.7680302,15.8311902 L27.7487094,15.8156913 L32.2214642,8.97948911 L32.2190491,8.97948911 L37.8051623,0.440793556 L32.5161057,0.387143556 L23.9859925,13.426478 L23.9811623,13.4336313 L24.0041057,13.4491302 C22.6854642,15.4687547 22.0925585,17.9914969 22.6335396,20.6644591 C23.4099925,24.4962613 26.5580679,27.5543113 30.4524075,28.2493769 C36.6785208,29.3617202 42.1209358,24.6429047 42.1209358,18.694908 C42.1209358,14.241958 39.0682566,10.4876502 34.9227472,9.34311689 L32.5462943,12.9829713 C32.4255396,13.1665736 32.5523321,13.394288 32.7721057,13.4145558" id="Shape" fill="#000000"></path>
                <path d="M10.0880906,0.386666667 L10.0808453,0.386666667 L1.84175094,12.9813022 C1.71495849,13.17325 1.85624151,13.4271933 2.08688302,13.4271933 L6.87722264,13.4271933 L9.78620377,8.98020444 L9.78378868,8.98020444 L12.7362415,4.46525889 L19.700166,4.46525889 L19.700166,0.386666667 L10.0880906,0.386666667 Z" id="Shape" fill="#000000"></path>
                <mask id="mask-2" fill="white">
                    <use xlink:href="#path-1"></use>
                </mask>
                <g id="Shape"></g>
                <path d="M12.4879698,9.34347456 L10.1042717,12.9928668 C9.98834717,13.1717001 10.111517,13.3946457 10.3264604,13.4137212 C13.0663849,13.6545501 15.2134038,15.9257334 15.2146113,18.6940734 C15.2146113,21.5625601 12.7439698,23.9994623 9.83861132,23.9970779 C6.87529057,23.9946934 4.4722717,21.6221712 4.4722717,18.6952657 L4.4722717,18.6845357 L-0.000483018866,18.6845357 C-0.000483018866,19.3712557 0.0707622642,20.0746668 0.225328302,20.7888079 C1.04163019,24.5776901 4.18366792,27.576129 8.04540377,28.2556957 C14.2606491,29.346579 19.6861585,24.6349168 19.6861585,18.6952657 C19.6861585,14.2423157 16.6334792,10.4880079 12.4879698,9.34347456" id="Shape" fill="#000000" mask="url(#mask-2)"></path>
            </g>
        </g>
    </g>
</svg>